<svg width="448" height="116" viewBox="0 0 448 116" fill="none" xmlns="http://www.w3.org/2000/svg">
<path d="M57.5795 45C56.9432 42.6818 56.0114 40.5114 54.7841 38.4886C53.5568 36.4432 52.0341 34.6591 50.2159 33.1364C48.4205 31.5909 46.3409 30.3864 43.9773 29.5227C41.6364 28.6591 39.0227 28.2273 36.1364 28.2273C31.5909 28.2273 27.5227 29.4091 23.9318 31.7727C20.3409 34.1364 17.5 37.5455 15.4091 42C13.3409 46.4545 12.3068 51.8182 12.3068 58.0909C12.3068 64.3409 13.3523 69.6932 15.4432 74.1477C17.5341 78.6023 20.3977 82.0227 24.0341 84.4091C27.6932 86.7727 31.875 87.9545 36.5795 87.9545C40.875 87.9545 44.6705 87 47.9659 85.0909C51.2614 83.1818 53.8295 80.4545 55.6705 76.9091C57.5341 73.3636 58.4432 69.1477 58.3977 64.2614L60.4432 64.9091H38.0795V59.1818H64.6023V64.9091C64.6023 70.8636 63.3977 76.0114 60.9886 80.3523C58.5795 84.6932 55.2727 88.0455 51.0682 90.4091C46.8636 92.7727 42.0341 93.9545 36.5795 93.9545C30.4886 93.9545 25.1591 92.4886 20.5909 89.5568C16.0227 86.6023 12.4659 82.4432 9.92045 77.0795C7.39773 71.6932 6.13636 65.3636 6.13636 58.0909C6.13636 52.6136 6.86364 47.6705 8.31818 43.2614C9.77273 38.8523 11.8295 35.0795 14.4886 31.9432C17.1705 28.8068 20.3409 26.4091 24 24.75C27.6591 23.0682 31.7045 22.2273 36.1364 22.2273C39.9545 22.2273 43.4432 22.8295 46.6023 24.0341C49.7841 25.2386 52.5795 26.8977 54.9886 29.0114C57.4205 31.1023 59.4091 33.5227 60.9545 36.2727C62.5227 39 63.5795 41.9091 64.125 45H57.5795ZM93.7926 94.1932C90.6335 94.1932 87.7472 93.5795 85.1335 92.3523C82.5199 91.1023 80.4403 89.3068 78.8949 86.9659C77.3494 84.6023 76.5767 81.7386 76.5767 78.375C76.5767 75.7841 77.0653 73.6023 78.0426 71.8295C79.0199 70.0568 80.4063 68.6023 82.2017 67.4659C83.9972 66.3295 86.1222 65.4318 88.5767 64.7727C91.0313 64.1136 93.7358 63.6023 96.6903 63.2386C99.6222 62.875 102.099 62.5568 104.122 62.2841C106.168 62.0114 107.724 61.5795 108.793 60.9886C109.861 60.3977 110.395 59.4432 110.395 58.125V56.8977C110.395 53.3295 109.327 50.5227 107.19 48.4773C105.077 46.4091 102.031 45.375 98.054 45.375C94.2812 45.375 91.2017 46.2045 88.8153 47.8636C86.4517 49.5227 84.7926 51.4773 83.8381 53.7273L78.0767 51.6477C79.2585 48.7841 80.8949 46.5 82.9858 44.7955C85.0767 43.0682 87.4176 41.8295 90.0085 41.0795C92.5994 40.3068 95.2244 39.9205 97.8835 39.9205C99.8835 39.9205 101.963 40.1818 104.122 40.7045C106.304 41.2273 108.327 42.1364 110.19 43.4318C112.054 44.7045 113.565 46.4886 114.724 48.7841C115.884 51.0568 116.463 53.9432 116.463 57.4432V93H110.395V84.7159H110.02C109.293 86.2614 108.213 87.7614 106.781 89.2159C105.349 90.6705 103.554 91.8636 101.395 92.7955C99.2358 93.7273 96.7017 94.1932 93.7926 94.1932ZM94.6108 88.6364C97.8381 88.6364 100.634 87.9205 102.997 86.4886C105.361 85.0568 107.179 83.1591 108.452 80.7955C109.747 78.4091 110.395 75.7841 110.395 72.9205V65.3523C109.94 65.7841 109.179 66.1705 108.111 66.5114C107.065 66.8523 105.849 67.1591 104.463 67.4318C103.099 67.6818 101.736 67.8977 100.372 68.0795C99.0085 68.2614 97.7812 68.4205 96.6903 68.5568C93.7358 68.9205 91.2131 69.4886 89.1222 70.2614C87.0313 71.0341 85.429 72.1023 84.3153 73.4659C83.2017 74.8068 82.6449 76.5341 82.6449 78.6477C82.6449 81.8295 83.7812 84.2955 86.054 86.0455C88.3267 87.7727 91.179 88.6364 94.6108 88.6364ZM138.673 60.2727V93H132.605V40.6364H138.503V48.8523H139.048C140.276 46.1705 142.185 44.0227 144.776 42.4091C147.389 40.7727 150.616 39.9545 154.457 39.9545C157.98 39.9545 161.071 40.6932 163.73 42.1705C166.412 43.625 168.491 45.7727 169.969 48.6136C171.469 51.4545 172.219 54.9432 172.219 59.0795V93H166.151V59.4545C166.151 55.1591 164.946 51.7614 162.537 49.2614C160.151 46.7614 156.946 45.5114 152.923 45.5114C150.173 45.5114 147.73 46.1023 145.594 47.2841C143.457 48.4659 141.764 50.1705 140.514 52.3977C139.287 54.6023 138.673 57.2273 138.673 60.2727ZM194.267 60.2727V93H188.199V23.1818H194.267V48.8523H194.812C196.04 46.1477 197.938 43.9886 200.506 42.375C203.097 40.7614 206.369 39.9545 210.324 39.9545C213.869 39.9545 216.983 40.6818 219.665 42.1364C222.347 43.5909 224.438 45.7386 225.938 48.5795C227.438 51.4205 228.188 54.9205 228.188 59.0795V93H222.085V59.4545C222.085 55.1364 220.881 51.7386 218.472 49.2614C216.085 46.7614 212.858 45.5114 208.79 45.5114C205.994 45.5114 203.506 46.1023 201.324 47.2841C199.142 48.4659 197.415 50.1705 196.142 52.3977C194.892 54.6023 194.267 57.2273 194.267 60.2727ZM258.793 94.1932C255.634 94.1932 252.747 93.5795 250.134 92.3523C247.52 91.1023 245.44 89.3068 243.895 86.9659C242.349 84.6023 241.577 81.7386 241.577 78.375C241.577 75.7841 242.065 73.6023 243.043 71.8295C244.02 70.0568 245.406 68.6023 247.202 67.4659C248.997 66.3295 251.122 65.4318 253.577 64.7727C256.031 64.1136 258.736 63.6023 261.69 63.2386C264.622 62.875 267.099 62.5568 269.122 62.2841C271.168 62.0114 272.724 61.5795 273.793 60.9886C274.861 60.3977 275.395 59.4432 275.395 58.125V56.8977C275.395 53.3295 274.327 50.5227 272.19 48.4773C270.077 46.4091 267.031 45.375 263.054 45.375C259.281 45.375 256.202 46.2045 253.815 47.8636C251.452 49.5227 249.793 51.4773 248.838 53.7273L243.077 51.6477C244.259 48.7841 245.895 46.5 247.986 44.7955C250.077 43.0682 252.418 41.8295 255.009 41.0795C257.599 40.3068 260.224 39.9205 262.884 39.9205C264.884 39.9205 266.963 40.1818 269.122 40.7045C271.304 41.2273 273.327 42.1364 275.19 43.4318C277.054 44.7045 278.565 46.4886 279.724 48.7841C280.884 51.0568 281.463 53.9432 281.463 57.4432V93H275.395V84.7159H275.02C274.293 86.2614 273.213 87.7614 271.781 89.2159C270.349 90.6705 268.554 91.8636 266.395 92.7955C264.236 93.7273 261.702 94.1932 258.793 94.1932ZM259.611 88.6364C262.838 88.6364 265.634 87.9205 267.997 86.4886C270.361 85.0568 272.179 83.1591 273.452 80.7955C274.747 78.4091 275.395 75.7841 275.395 72.9205V65.3523C274.94 65.7841 274.179 66.1705 273.111 66.5114C272.065 66.8523 270.849 67.1591 269.463 67.4318C268.099 67.6818 266.736 67.8977 265.372 68.0795C264.009 68.2614 262.781 68.4205 261.69 68.5568C258.736 68.9205 256.213 69.4886 254.122 70.2614C252.031 71.0341 250.429 72.1023 249.315 73.4659C248.202 74.8068 247.645 76.5341 247.645 78.6477C247.645 81.8295 248.781 84.2955 251.054 86.0455C253.327 87.7727 256.179 88.6364 259.611 88.6364ZM338.787 23.1818H353.548V68.5227C353.548 73.6136 352.332 78.0682 349.901 81.8864C347.491 85.7045 344.116 88.6818 339.776 90.8182C335.435 92.9318 330.378 93.9886 324.605 93.9886C318.81 93.9886 313.741 92.9318 309.401 90.8182C305.06 88.6818 301.685 85.7045 299.276 81.8864C296.866 78.0682 295.662 73.6136 295.662 68.5227V23.1818H310.423V67.2614C310.423 69.9205 311.003 72.2841 312.162 74.3523C313.344 76.4205 315.003 78.0455 317.139 79.2273C319.276 80.4091 321.764 81 324.605 81C327.469 81 329.957 80.4091 332.071 79.2273C334.207 78.0455 335.855 76.4205 337.014 74.3523C338.196 72.2841 338.787 69.9205 338.787 67.2614V23.1818ZM365.693 23.1818H383.898L403.125 70.0909H403.943L423.17 23.1818H441.375V93H427.057V47.5568H426.477L408.409 92.6591H398.659L380.591 47.3864H380.011V93H365.693V23.1818Z" fill="black"/>
</svg>
